<?xml version="1.0" encoding="UTF-8"?>
<svg id="card" xmlns="http://www.w3.org/2000/svg" xmlns:xlink="http://www.w3.org/1999/xlink" viewBox="30 52 33 25">
  <defs>
    <style>
      .cls-1 {
        clip-path: url(#clippath);
      }

      .cls-2 {
        fill: none;
      }

      .cls-2, .cls-3, .cls-4, .cls-5, .cls-6, .cls-7, .cls-8, .cls-9, .cls-10, .cls-11, .cls-12, .cls-13, .cls-14, .cls-15, .cls-16, .cls-17, .cls-18, .cls-19, .cls-20, .cls-21, .cls-22, .cls-23, .cls-24, .cls-25, .cls-26, .cls-27, .cls-28, .cls-29, .cls-30, .cls-31, .cls-32 {
        stroke-width: 0px;
      }

      .cls-3 {
        fill: url(#linear-gradient);
      }

      .cls-4 {
        fill: url(#linear-gradient-2);
      }

      .cls-4, .cls-5, .cls-6 {
        fill-rule: evenodd;
      }

      .cls-5 {
        fill: #595641;
      }

      .cls-6, .cls-26 {
        fill: #fff;
      }

      .cls-8 {
        fill: #f89c24;
      }

      .cls-9 {
        fill: #f7bed1;
      }

      .cls-10 {
        fill: #f9b181;
      }

      .cls-11 {
        fill: #7975b2;
      }

      .cls-12 {
        fill: #4fb7b2;
      }

      .cls-13 {
        fill: #63bf89;
      }

      .cls-14 {
        fill: #549461;
      }

      .cls-15 {
        fill: #95b5d3;
      }

      .cls-16 {
        fill: #9590c5;
      }

      .cls-17 {
        fill: #0b0b0b;
      }

      .cls-18 {
        fill: #e31e27;
      }

      .cls-19 {
        fill: #c6cad6;
      }

      .cls-20 {
        fill: #dfcb97;
      }

      .cls-21 {
        fill: #a8dad1;
      }

      .cls-22 {
        fill: #b8dba1;
      }

      .cls-23 {
        fill: #319d87;
      }

      .cls-24 {
        fill: #8dd0c3;
      }

      .cls-25 {
        fill: #7e5784;
      }

      .cls-27 {
        fill: #f6935e;
      }

      .cls-28 {
        fill: #ffe5a9;
      }

      .cls-29 {
        fill: #fbc2a2;
      }

      .cls-30 {
        fill: #ed6523;
      }

      .cls-31 {
        fill: #f27c80;
      }

      .cls-32 {
        fill: #f59ca9;
      }
    </style>
    <clipPath id="clippath">
      <rect class="cls-2" width="242.64" height="152.89" rx="9.01" ry="9.01"/>
    </clipPath>
    <linearGradient id="linear-gradient" x1="-8892.07" y1="-2899.87" x2="-8649.44" y2="-2899.87" gradientTransform="translate(8892.07 2976.31)" gradientUnits="userSpaceOnUse">
      <stop offset="0" stop-color="#00acaa"/>
      <stop offset="1" stop-color="#c0e4e2"/>
    </linearGradient>
    <linearGradient id="linear-gradient-2" x1="31.77" y1="65.22" x2="61.53" y2="65.22" gradientUnits="userSpaceOnUse">
      <stop offset="0" stop-color="#989299"/>
      <stop offset=".51" stop-color="#f6f3f4"/>
      <stop offset="1" stop-color="#989299"/>
    </linearGradient>
  </defs>
  <g class="cls-1">
    <g id="chip">
      <path class="cls-6" d="m57.86,53.56h-22.49s-.22.01-.22.01h-.01s-.01,0-.01,0l-.22.02h-.01s-.01,0-.01,0l-.22.04h-.01s-.01,0-.01,0l-.21.05h-.01s-.01,0-.01,0l-.21.06h-.01s-.01,0-.01,0l-.21.08h0s0,0,0,0l-.2.09h-.01s-.01.01-.01.01l-.19.1h-.01s-.01.01-.01.01l-.19.11h0s0,.01,0,.01l-.18.12h0s0,.01,0,.01l-.18.13h-.01s0,.02,0,.02l-.17.14h-.01s-.01.02-.01.02l-.16.15h0s0,.01,0,.01l-.15.16h0s0,.02,0,.02l-.14.17h0s0,.02,0,.02l-.13.18h0s0,.02,0,.02l-.12.18h0s0,.02,0,.02l-.11.19h0s0,.02,0,.02l-.1.2h0s0,.02,0,.02l-.08.2h0s0,.02,0,.02l-.07.21h0s0,.03,0,.03l-.06.21h0s0,.02,0,.02l-.05.21h0s0,.02,0,.02l-.03.22h0s0,.02,0,.02l-.02.22h0s0,.02,0,.02v.22s0,0,0,0h0v15.28h0s0,.02,0,.02v.22s.01.01.01.01h0s.02.23.02.23h0s0,.02,0,.02l.04.22h0s0,.02,0,.02l.05.21h0s0,.02,0,.02l.06.21h0s0,.02,0,.02l.08.21h0s0,.02,0,.02l.09.2h0s0,.03,0,.03l.1.19h0s0,.02,0,.02l.11.19h0s0,.02,0,.02l.12.18h0s0,.02,0,.02l.13.18h0s0,.02,0,.02l.14.17h0s.01.02.01.02l.15.16h0s0,.01,0,.01l.16.15h0s0,.01,0,.01l.17.14h.01s.01.02.01.02l.18.13h0s0,.01,0,.01l.18.12h.01s.01.01.01.01l.19.11h.01s.01.01.01.01l.2.09h.01s.01.01.01.01l.2.08h0s0,0,0,0l.21.07h.01s.02,0,.02,0l.21.06h0s0,0,0,0l.21.05h.01s.01,0,.01,0l.22.03h.01s.01,0,.01,0l.22.02h.01s.01,0,.01,0h.22s0,0,0,0h22.49s.22-.01.22-.01h.01s.01,0,.01,0l.22-.02h.01s.01,0,.01,0l.22-.04h.01s.01,0,.01,0l.21-.05h.01s.01,0,.01,0l.21-.06h.01s.01,0,.01,0l.21-.08h0s0,0,0,0l.2-.08h.01s.01-.01.01-.01l.19-.1h.01s.01-.01.01-.01l.19-.11h0s0-.01,0-.01l.18-.12h0s0-.01,0-.01l.18-.13h.01s0-.02,0-.02l.17-.14h.01s.01-.02.01-.02l.16-.15h0s0-.02,0-.02l.15-.16h0s0-.01,0-.01l.14-.17h0s0-.02,0-.02l.13-.18h0s0-.02,0-.02l.12-.18h0s0-.02,0-.02l.11-.19h0s0-.02,0-.02l.1-.2h0s0-.02,0-.02l.08-.2h0s0-.02,0-.02l.07-.21h0s0-.03,0-.03l.06-.21h0s0-.02,0-.02l.05-.21h0s0-.02,0-.02l.03-.22h0s0-.02,0-.02l.02-.22h0s0-.02,0-.02v-.22s0,0,0,0h0v-15.28h0s0-.02,0-.02v-.22s-.01-.01-.01-.01h0s-.02-.23-.02-.23h0s0-.02,0-.02l-.04-.22h0s0-.02,0-.02l-.05-.21h0s0-.02,0-.02l-.06-.21h0s0-.02,0-.02l-.08-.21h0s0-.02,0-.02l-.09-.2h0s0-.03,0-.03l-.1-.19h0s0-.02,0-.02l-.11-.19h0s0-.02,0-.02l-.12-.18h0s0-.02,0-.02l-.13-.18h0s0-.02,0-.02l-.14-.17h0s-.01-.02-.01-.02l-.15-.16h0s0-.01,0-.01l-.16-.15h0s0-.01,0-.01l-.17-.14h-.01s-.01-.02-.01-.02l-.18-.13h0s0-.01,0-.01l-.18-.12h-.01s-.01-.01-.01-.01l-.19-.11h-.01s-.01-.01-.01-.01l-.2-.09h-.01s-.01-.01-.01-.01l-.2-.08h0s0,0,0,0l-.21-.07h-.02s-.02,0-.02,0l-.21-.06h0s0,0,0,0l-.21-.05h-.01s-.01,0-.01,0l-.22-.03h-.01s-.01,0-.01,0l-.22-.02h-.01s-.01,0-.01,0h-.22s0,0,0,0Zm.21.41l.22.02.22.03.21.05.21.06.21.07.2.08.2.09.19.11.18.12.18.13.17.14.16.15h0s.15.16.15.16l.14.17.07.09.06.08.12.18.11.19.1.19.09.2.08.21.06.21.05.21.04.22.02.22v.22s.01.06.01.06v3.41s0,.54,0,.54v.54s0,.54,0,.54v10.39s-.03.22-.03.22l-.03.22-.05.21-.06.21-.07.21-.08.2-.1.2-.11.19-.12.18-.1.13-.03.04-.14.17-.15.16-.04.04-.12.12-.17.14-.18.13-.18.12-.19.11-.19.1-.2.08-.21.07-.21.06-.21.05-.22.04-.22.02h-.22s-.06,0-.06,0h-10.38s-.54,0-.54,0h-.54s-.54,0-.54,0h-10.6s-.22-.03-.22-.03l-.22-.03-.21-.05-.21-.06-.21-.07-.2-.08-.2-.09-.19-.11-.18-.12-.18-.13-.17-.14-.16-.15h-.01s-.14-.16-.14-.16l-.14-.17-.07-.1-.06-.08-.12-.18-.11-.19-.1-.19-.09-.2-.08-.21-.06-.21-.05-.21-.04-.22-.02-.22v-.22s0-.06,0-.06v-3.41s0-.54,0-.54v-.54s0-.54,0-.54v-5.14s0-.54,0-.54v-4.71s.03-.22.03-.22l.03-.21.05-.21.06-.21.07-.21.08-.2.1-.2.11-.19.12-.18.1-.13.03-.04.14-.17.15-.16.04-.04.12-.11.17-.14.18-.13.18-.12.19-.11.19-.1.2-.09.21-.08.21-.06.21-.05.22-.04.22-.02h.22s.06,0,.06,0h22.61Z"/>
      <path class="cls-4" d="m51.52,53.97v.35s-.05.08-.05.08l-.06.06-.08.04-.08.02h-3.6s-.08-.05-.08-.05l-.06-.06-.04-.08v-.09s0-.27,0-.27h-.54v2.16l-.02.15-.04.15-.08.14-.1.13-.12.09-.15.08-.15.04-.16.02h-2.71l-.19.02-.18.05-.17.08-.15.11-.13.13-.11.15-.08.17-.05.18-.02.19v14.4s.02.19.02.19l.05.18.08.17.11.15.13.13.15.11.17.08.18.05.19.02h6.49l.19-.02.18-.05.17-.08.15-.11.14-.13.1-.15.09-.17.04-.18.02-.19v-9.23l.02-.23.05-.22.08-.22.11-.2.14-.19.16-.16.19-.14.21-.11.21-.08.22-.05.23-.02h8.93v-.54h-.27l-.09-.02-.07-.03-.06-.06-.04-.08v-.09s0-3.27,0-3.27l-.02-.28-.04-.28-.07-.27-.1-.27-.12-.27-.04-.12-.02-.14.03-.14.05-.13.09-.1.05-.05-.07-.09-.14-.17-.15-.15-.11.08-.15.06h-.15s-.15-.02-.15-.02l-.13-.08-.27-.16-.27-.15-.28-.1-.3-.09-.31-.04-.31-.02h-5.68l-.09-.02-.08-.03-.06-.06-.03-.08-.02-.09v-.27h-.54Zm1.14,6.59l.05.05.02.06-.02.07-.05.05-.06.02-.06-.02-.05-.05-.02-.07.02-.06.05-.05.06-.02.06.02Zm-6.82-6.59v.27l-.02.09-.03.08-.06.06-.08.04-.09.02h-3.51l-.09-.02-.08-.04-.06-.06-.03-.08-.02-.09v-.27h-.54v.35s-.05.08-.05.08l-.06.06-.07.04-.09.02h-5.69s-.3.02-.3.02l-.31.04-.3.09-.28.1-.28.15-.26.16-.14.07-.15.03-.15-.02-.14-.05-.1-.08-.04.04-.15.16-.14.17-.03.04.05.05.08.1.06.13.02.14v.13s-.06.13-.06.13l-.12.27-.1.27-.07.27-.03.28-.02.28v3.27l-.02.09-.03.08-.06.06-.08.04-.08.02h-.27v.54h8.92l.19-.02.18-.05.17-.08.15-.11.14-.13.1-.15.09-.17.04-.18.02-.19v-2.46l.02-.23.05-.22.08-.21.11-.21.15-.18.16-.17.18-.14.21-.11.21-.08.22-.05.23-.02h2.79s.08-.05.08-.05l.06-.06.03-.07.02-.09v-2.16h-.54Zm-5.08,6.59l.05.05.02.06-.02.07-.05.05-.06.02-.06-.02-.05-.05-.02-.07.02-.06.05-.05.06-.02.06.02Zm11.84,1.55l-.19.02-.18.04-.17.09-.15.1-.13.14-.11.15-.08.17-.05.18-.02.19v4.42s.04.08.07.12c.04.04.08.07.13.08.07.02.14,0,.21-.03.09-.03.18-.07.27-.09.09-.01.18,0,.27,0,.11.02.22.04.31.09.06.03.12.08.18.1.05.02.1.02.16.03h6.91c.08-.03.17-.06.24-.1.07-.04.14-.09.21-.1.08-.02.17,0,.26,0,.06,0,.12-.01.16-.04.05-.03.09-.09.12-.15.02-.04.03-.08.06-.1.03-.02.06-.03.1-.04h.35v-.54h-.35s-.08-.05-.08-.05l-.06-.06-.04-.08-.02-.08v-3.66l.02-.08.03-.08.06-.06.08-.04h.08s.27,0,.27,0v-.54s-8.93,0-8.93,0Zm-15.97,0h-4.86v.54s.27,0,.27,0h.08s.08.05.08.05l.06.06.03.08.02.08v4.6l-.02.08-.04.08-.06.06-.08.04h-.08s-.27,0-.27,0v.54s8.92,0,8.92,0l.19-.02.18-.04.17-.09.15-.1.14-.14.1-.15.09-.17.04-.18.02-.19v-4.05l-.02-.19-.04-.18-.09-.17-.1-.15-.14-.14-.15-.1-.17-.09-.18-.04-.19-.02h-4.06Zm4.13,2.99l.05.05.02.06-.02.07-.05.05-.06.02-.06-.02-.05-.05-.02-.07.02-.06.05-.05.06-.02.06.02Zm11.51,2.81c-.14.01-.29.05-.4.14-.12.09-.2.23-.24.37-.04.14-.05.29,0,.43.03.11.08.21.16.29.1.1.24.17.38.2.14.03.28.03.41,0,.15-.05.28-.15.36-.28.06-.1.08-.21.13-.31.04-.09.11-.17.19-.22.07-.05.15-.07.24-.1h6.28c.06.03.12.06.15.11.06.08.05.2.07.31.03.11.09.21.17.29.08.09.18.17.3.2.09.03.2.04.3.03.09,0,.18-.02.26-.05.08-.04.15-.09.21-.17.05-.07.1-.16.17-.19.02,0,.04-.01.06-.02h.06v-.57h-.06s-.04-.03-.06-.04c-.07-.04-.11-.13-.17-.2-.05-.07-.12-.12-.2-.15-.07-.03-.15-.05-.22-.06-.08,0-.16-.01-.24,0-.09.02-.17.06-.25.1-.06.03-.11.07-.17.1-.04.02-.08.03-.12.04h-6.99c-.08-.01-.16-.03-.24-.06-.09-.04-.16-.11-.25-.15-.09-.04-.19-.05-.29-.04Zm8.5.62l.05.05.02.06-.02.07-.05.05-.06.02-.06-.02-.05-.05-.02-.07.02-.06.05-.05.06-.02.06.02Zm-8.38,0l.05.05.02.06-.02.07-.05.05-.06.02-.06-.02-.05-.05-.02-.07.02-.06.05-.05.06-.02.06.02Zm1.08.32c-.05,0-.11,0-.15.03-.06.03-.1.11-.14.18-.04.07-.08.14-.13.2-.06.07-.13.12-.2.17-.07.05-.14.09-.22.12-.09.03-.19.05-.28.05-.1,0-.2-.02-.3-.05-.07-.02-.14-.06-.21-.07-.05,0-.1-.01-.14,0-.04.01-.08.04-.11.08-.03.03-.05.07-.07.11v2.75l-.02.23-.04.22-.09.21-.11.21-.14.19-.16.16-.19.14-.2.11-.22.08-.22.05-.23.02h-2.71s-.08,0-.08,0l-.08.04-.06.06-.04.08v.08s0,2.16,0,2.16h.54s0-.27,0-.27v-.09s.05-.08.05-.08l.06-.06.08-.04h.09s3.51,0,3.51,0l.08.02.08.04.06.06.04.08v.09s0,.27,0,.27h.54v-.27l.02-.09.03-.08.06-.06.08-.04.09-.02h5.68s.31-.02.31-.02l.31-.04.3-.09.28-.1.27-.15.27-.16.13-.08.15-.03h.15s.15.07.15.07l.11.08.04-.04.15-.16.14-.17.03-.04-.05-.05-.09-.11-.05-.12-.02-.14v-.14s.06-.13.06-.13l.11-.26.09-.27.07-.27.04-.28.02-.28v-2.71s.05-.08.05-.08l.06-.06.07-.04.09-.02h.28v-.52h-.15c-.06-.02-.11-.02-.17-.01-.12,0-.23.03-.34.05-.06,0-.13.02-.19.01-.17,0-.34-.06-.48-.15-.1-.07-.19-.15-.26-.26-.06-.09-.09-.2-.17-.26-.05-.04-.11-.06-.17-.08h-6.12Zm-.54,1.67l.05.05.02.06-.02.07-.05.05-.06.02-.06-.02-.05-.05-.02-.07.02-.06.05-.05.06-.02.06.02Zm-21.16-1.64v.54s.27,0,.27,0l.08.02.08.03.06.06.03.08.02.09v3.27l.02.28.03.28.07.27.1.27.12.27.05.12v.14s0,.14,0,.14l-.06.13-.08.1-.05.04.07.1.14.17.14.14.11-.07.14-.06h.15s.15.03.15.03l.14.07.26.16.27.15.29.1.3.09.3.04.31.02h5.69l.09.02.07.03.06.06.04.08v.09s.01.27.01.27h.54v-.27l.02-.09.03-.08.06-.06.08-.03.09-.02h3.51l.09.02.08.04.06.06.03.08.02.09v.27h.54s0-2.16,0-2.16l-.02-.08-.03-.08-.06-.06-.08-.04h-.09s-2.71,0-2.71,0l-.23-.02-.22-.05-.21-.08-.21-.11-.18-.14-.16-.16-.15-.19-.11-.21-.08-.21-.05-.22-.02-.23v-2.47s-.02-.19-.02-.19l-.04-.18-.09-.17-.1-.15-.14-.13-.15-.11-.17-.08-.18-.05-.19-.02h-8.92Zm8.99.78l.05.05.02.06-.02.07-.05.05-.06.02-.06-.02-.05-.05-.02-.07.02-.06.05-.05.06-.02.06.02Zm19.56,5.89l-.17.14-.18.13.18-.13.17-.14.12-.12-.12.12Z"/>
      <path class="cls-5" d="m52.54,60.56l-.05.05-.02.06.02.07.05.05.06.02.06-.02.05-.05.02-.07-.02-.06-.05-.05-.06-.02-.06.02Zm-5.08-6.59v.35s.05.08.05.08l.06.06.08.04h.09s3.51,0,3.51,0l.08-.02.08-.04.06-.06.04-.08v-.09s0-.27,0-.27h-4.05Zm-6.82,6.59l-.05.05-.02.06.02.07.05.05.06.02.06-.02.05-.05.02-.07-.02-.06-.05-.05-.06-.02-.06.02Zm1.14-6.59v.27l.02.09.03.08.06.06.08.04.09.02h3.51l.09-.02.08-.04.06-.06.03-.08.02-.09v-.27h-4.06Zm10.28,0v.27l.02.09.03.08.06.06.08.03.09.02h5.68l.31.02.31.04.3.09.28.1.27.15.27.16.13.08.15.03h.15s.15-.07.15-.07l.11-.08h0s-.16-.16-.16-.16l-.17-.14-.18-.13-.18-.12-.19-.11-.2-.09-.2-.08-.21-.07-.21-.06-.21-.05-.22-.03-.22-.02h-.22s-5.79,0-5.79,0Zm-16.6,0h-.28s-.22.03-.22.03l-.22.04-.21.05-.21.06-.21.08-.2.09-.19.1-.19.11-.18.12-.18.13-.17.14-.12.11.1.08.14.05.15.02.15-.03.14-.07.26-.16.28-.15.28-.1.3-.09.31-.04.3-.02h5.69s.09-.02.09-.02l.07-.04.06-.06.04-.08v-.09s0-.27,0-.27h-5.78Zm25.29,1.51l-.09.1-.05.13-.03.14.02.14.04.12.12.27.1.27.07.27.04.28.02.28v3.36s.05.08.05.08l.06.06.07.03.09.02h.27v-3.41s0-.06,0-.06v-.22s-.03-.22-.03-.22l-.04-.22-.05-.21-.06-.21-.08-.21-.09-.2-.1-.19-.11-.19-.12-.18-.06-.08-.05.05Zm-28.34.09l-.12.18-.11.19-.1.2-.08.2-.07.21-.06.21-.05.21-.03.21-.02.22v.22s0,3.41,0,3.41h.27l.08-.02.08-.04.06-.06.03-.08.02-.09v-3.27l.02-.28.03-.28.07-.27.1-.27.12-.27.05-.13v-.13s0-.14,0-.14l-.06-.13-.08-.1-.05-.05-.1.13Zm13.97-1.6v2.16l-.02.09-.03.07-.06.06-.08.04h-.09s-2.71,0-2.71,0l-.23.02-.22.05-.21.08-.21.11-.18.14-.16.17-.15.18-.11.21-.08.21-.05.22-.02.23v2.46l-.02.19-.04.18-.09.17-.1.15-.14.13-.15.11-.17.08-.18.05-.19.02h-8.92v.54h8.92l.19.02.18.04.17.09.15.1.14.14.1.15.09.17.04.18.02.19v4.05l-.02.19-.04.18-.09.17-.1.15-.14.14-.15.1-.17.09-.18.04-.19.02h-8.92s0,.54,0,.54h8.92l.19.02.18.05.17.08.15.11.14.13.1.15.09.17.04.18.02.19v2.47s.02.23.02.23l.05.22.08.21.11.21.15.19.16.16.18.14.21.11.21.08.22.05.23.02h2.79s.08.05.08.05l.06.06.03.08.02.08v2.17s.54,0,.54,0v-2.24s.05-.08.05-.08l.06-.06.08-.04h.08s2.71,0,2.71,0l.23-.02.22-.05.22-.08.2-.11.19-.14.16-.16.14-.19.11-.21.09-.21.04-.22.02-.23v-2.75s.04-.08.07-.11c.03-.03.07-.06.11-.08.04-.02.09-.01.14,0,.08.01.14.05.21.07.1.03.2.05.3.05.1,0,.19-.02.28-.05.08-.03.15-.07.22-.12.07-.05.15-.1.2-.17.05-.06.09-.13.13-.2.04-.07.08-.15.14-.18.04-.02.1-.03.15-.03h6.12c.06.02.12.04.17.08.08.06.11.17.17.26.06.11.15.19.26.26.14.09.31.15.48.15.06,0,.13,0,.19-.01.12-.02.23-.04.34-.05.05,0,.11,0,.17,0h.15s0-.59,0-.59h-.06s-.04.01-.06.02c-.07.03-.12.12-.17.19-.06.08-.13.13-.21.17-.08.04-.17.05-.26.05-.1,0-.21,0-.3-.03-.11-.04-.21-.12-.3-.2-.08-.08-.14-.18-.17-.29-.02-.11-.01-.23-.07-.31-.03-.05-.09-.08-.15-.11h-6.28c-.08.03-.17.05-.24.1-.08.05-.15.13-.19.22-.05.1-.07.21-.13.31-.08.13-.21.23-.36.28-.13.04-.28.04-.41,0-.14-.03-.28-.1-.38-.2-.08-.08-.13-.18-.16-.29-.04-.14-.03-.29,0-.43.04-.15.12-.28.24-.37.11-.09.25-.13.4-.14.1,0,.2,0,.29.04.09.04.16.11.25.15.07.03.15.05.24.06h6.99s.08-.02.12-.04c.06-.02.11-.06.17-.1.08-.05.16-.08.25-.1.08-.02.16-.01.24,0,.08,0,.15.03.22.06.08.03.14.08.2.15.06.07.1.16.17.2.02.01.04.02.06.02h.06s0-.98,0-.98h-.35s-.08.02-.1.04c-.03.03-.04.06-.06.1-.03.06-.07.12-.12.15-.05.03-.1.04-.16.04-.09,0-.18-.01-.26,0-.07.02-.14.07-.21.1-.08.04-.16.07-.24.1h-6.91c-.05,0-.11,0-.16-.03-.06-.02-.12-.07-.18-.1-.1-.05-.2-.08-.31-.09-.09-.01-.18-.02-.27,0-.09.01-.17.05-.27.09-.07.03-.14.05-.21.03-.05-.01-.1-.04-.13-.08-.03-.04-.05-.08-.07-.12v-4.42l.02-.19.05-.18.08-.17.11-.15.13-.14.15-.1.17-.09.18-.04.19-.02h8.93s0-.54,0-.54h-8.93l-.23.02-.22.05-.21.08-.21.11-.19.14-.16.16-.14.19-.11.2-.08.22-.05.22-.02.23v9.23l-.02.19-.04.18-.09.17-.1.15-.14.13-.15.11-.17.08-.18.05-.19.02h-6.49l-.19-.02-.18-.05-.17-.08-.15-.11-.13-.13-.11-.15-.08-.17-.05-.18-.02-.19v-14.4s.02-.19.02-.19l.05-.18.08-.17.11-.15.13-.13.15-.11.17-.08.18-.05.19-.02h2.71l.16-.02.15-.04.15-.08.12-.09.1-.13.08-.14.04-.15.02-.15v-2.16h-.54Zm-5.74,11.14l-.05.05-.02.06.02.07.05.05.06.02.06-.02.05-.05.02-.07-.02-.06-.05-.05-.06-.02-.06.02Zm20.62-2.45h-.08s-.08.05-.08.05l-.06.06-.03.08-.02.08v3.66l.02.08.04.08.06.06.08.04h.08s.27,0,.27,0v-4.19h-.27Zm-29.48,0v5.14h.35s.08-.05.08-.05l.06-.06.04-.08.02-.08v-4.6l-.02-.08-.03-.08-.06-.06-.08-.04h-.08s-.27,0-.27,0Zm28.88,5.88l-.05.05-.02.06.02.07.05.05.06.02.06-.02.05-.05.02-.07-.02-.06-.05-.05-.06-.02-.06.02Zm-8.38,0l-.05.05-.02.06.02.07.05.05.06.02.06-.02.05-.05.02-.07-.02-.06-.05-.05-.06-.02-.06.02Zm.54,1.99l-.05.05-.02.06.02.07.05.05.06.02.06-.02.05-.05.02-.07-.02-.06-.05-.05-.06-.02-.06.02Zm-12.17-.87l-.05.05-.02.06.02.07.05.05.06.02.06-.02.05-.05.02-.07-.02-.06-.05-.05-.06-.02-.06.02Zm20.62.41l-.09.02-.07.04-.06.06-.04.08v.09s0,2.62,0,2.62l-.02.28-.04.28-.07.27-.09.27-.11.26-.05.13v.14s0,.14,0,.14l.05.12.09.11.05.05.1-.13.12-.18.11-.19.1-.2.08-.2.07-.21.06-.21.05-.21.03-.22.02-.22v-.22s0-2.76,0-2.76h-.28Zm-29.48-.65v3.41s0,.06,0,.06v.22s.03.22.03.22l.04.22.05.21.06.21.08.21.09.2.1.19.11.19.12.18.06.08.05-.04.08-.1.06-.13.02-.14v-.14s-.06-.12-.06-.12l-.12-.27-.1-.27-.07-.27-.03-.28-.02-.28v-3.27l-.02-.09-.03-.08-.06-.06-.08-.03-.08-.02h-.27Zm1.34,5.87l-.14.06-.11.07h.01s.16.16.16.16l.17.14.18.13.18.12.19.11.2.09.2.08.21.07.21.06.21.05.22.03.22.02h.22s5.78,0,5.78,0v-.35s-.05-.08-.05-.08l-.06-.06-.07-.03-.09-.02h-5.69l-.31-.02-.3-.04-.3-.09-.29-.1-.27-.15-.26-.16-.14-.07-.15-.04h-.15Zm26.77.02l-.13.08-.27.16-.27.15-.28.1-.3.09-.31.04-.31.02h-5.68s-.09.02-.09.02l-.08.04-.06.06-.03.08-.02.09v.27h6.07s.22-.03.22-.03l.22-.04.21-.05.21-.06.21-.07.2-.08.19-.1.19-.11.18-.12.18-.13.17-.14.12-.12-.11-.08-.15-.06h-.15s-.15.02-.15.02Zm-12.14.64h-.09s-.08.05-.08.05l-.06.06-.04.08v.09s0,.27,0,.27h4.05v-.35s-.05-.08-.05-.08l-.06-.06-.08-.04-.08-.02h-3.51Zm-5.68,0l-.09.02-.08.03-.06.06-.03.08-.02.09v.27h4.06v-.27l-.02-.09-.03-.08-.06-.06-.08-.04-.09-.02h-3.51Z"/>
    </g>
  </g>
</svg>